<?xml version="1.0" encoding="utf-8"?>
<!-- Generator: Adobe Illustrator 23.0.1, SVG Export Plug-In . SVG Version: 6.00 Build 0)  -->
<svg version="1.1" id="Слой_1" xmlns="http://www.w3.org/2000/svg" xmlns:xlink="http://www.w3.org/1999/xlink" x="0px" y="0px"
	 viewBox="0 0 512 512" style="enable-background:new 0 0 512 512;" xml:space="preserve">
<style type="text/css">
	.st0{fill:#FFC300;}
</style>
<path class="st0" d="M256,482c124.6,0,226-101.4,226-226S380.6,30,256,30S30,131.4,30,256S131.4,482,256,482z"/>
<path d="M327.5,256c14.4-11.9,23.5-29.9,23.5-50c0-30.7-21.4-56.4-50-63.2V126c0-8.3-6.7-15-15-15s-15,6.7-15,15v15h-30v-15
	c0-8.3-6.7-15-15-15s-15,6.7-15,15v15h-15c-8.3,0-15,6.7-15,15v200c0,8.3,6.7,15,15,15h15v15c0,8.3,6.7,15,15,15s15-6.7,15-15v-15
	h30v15c0,8.3,6.7,15,15,15s15-6.7,15-15v-16.8c28.6-6.8,50-32.6,50-63.2C351,285.9,341.8,267.9,327.5,256z M211,171h75
	c19.3,0,35,15.7,35,35s-15.7,35-35,35h-75V171z M286,341h-75v-70h75c19.3,0,35,15.7,35,35S305.3,341,286,341z"/>
</svg>
