<?xml version="1.0" encoding="utf-8"?>
<!-- Generator: Adobe Illustrator 21.0.0, SVG Export Plug-In . SVG Version: 6.00 Build 0)  -->
<svg version="1.1" id="Слой_1" xmlns="http://www.w3.org/2000/svg" xmlns:xlink="http://www.w3.org/1999/xlink" x="0px" y="0px"
	 viewBox="0 0 511 511" style="enable-background:new 0 0 511 511;" xml:space="preserve">
<style type="text/css">
	.st0{fill:#00FF00;}
	.st1{fill:#00FC00;}
</style>
<path class="st0" d="M510.7,337.5c-1-3.9-4.2-6.9-8.2-7.5l-57.3-8.9c-23.8-3.7-47.5-3.4-70.7,0.7c5.7-5.4,11.1-11,16.3-16.9
	c22-24.9,39-53.3,50.6-84.6l23.6-63.6c1.4-3.9,0.3-8.2-2.7-10.9c-3.1-2.7-7.5-3.3-11.2-1.4l-60.3,31.2c-28.9,15-54.5,34.8-76.2,58.8
	c3.6-17.2,5.4-34.6,5.4-52.3c0-37.4-8.4-75-24.3-108.8L264.5,6.7c-1.6-3.5-5.2-5.7-9-5.7s-7.4,2.2-9,5.7l-31.3,66.6
	c-1.5,3.2-2.9,6.4-4.3,9.6c-2.1,5.1,0.2,10.9,5.3,13.1c5.1,2.1,10.9-0.2,13.1-5.3c1.3-3,2.6-6,4-8.9l22.3-47.4l22.3,47.4
	c14.7,31.2,22.4,65.9,22.4,100.4c0,27.8-4.8,55-14.4,81.1l-10.3,28.2c-8.3,16.2-15,33.2-19.9,50.8c-5-17.9-11.8-35.2-20.3-51.7
	l-10-27.3c-9.5-26.1-14.4-53.4-14.4-81.1c0-8,0.4-16.2,1.2-24.2c0.6-5.5-3.4-10.4-8.9-11c-5.5-0.6-10.4,3.4-11,8.9
	c-0.9,8.7-1.3,17.5-1.3,26.2c0,17.6,1.8,35,5.4,52.1c-21.6-24-47.2-43.7-76-58.7l-60.3-31.2c-3.7-1.9-8.1-1.3-11.2,1.4
	c-3.1,2.7-4.2,7.1-2.7,10.9l23.6,63.6c11.6,31.3,28.6,59.8,50.6,84.6c5.2,5.9,10.7,11.5,16.3,16.9c-23.2-4.1-47-4.4-70.7-0.7
	L8.5,330c-4,0.6-7.2,3.6-8.2,7.5c-1,3.9,0.5,8,3.8,10.4l46.6,34.4c23.1,17.1,48.8,29.1,76.4,35.9c9.1,2.2,18.4,3.8,27.8,4.9
	c-6.4,7.2-12.1,15.1-16.8,23.9L120.5,479c-1.8,3.4-1.6,7.5,0.7,10.6c1.9,2.6,4.9,4.1,8.1,4.1c0.6,0,1.2-0.1,1.8-0.2L167,487
	c18.5-3.4,35.3-10.5,50-21.1c11-8,20.6-17.8,28.4-29.1v63.9c0,5.5,4.5,10,10,10c5.5,0,10-4.5,10-10v-64.1
	c7.9,11.4,17.5,21.3,28.6,29.3c14.7,10.6,31.5,17.7,50,21.1l35.9,6.6c0.6,0.1,1.2,0.2,1.8,0.2c3.2,0,6.2-1.5,8.1-4.1
	c2.3-3.1,2.5-7.3,0.7-10.6L373,446.9c-4.8-8.7-10.4-16.7-16.8-23.9c9.3-1,18.6-2.6,27.8-4.9c27.5-6.8,53.2-18.8,76.4-35.9l46.6-34.4
	C510.2,345.5,511.7,341.4,510.7,337.5z M271.3,361.2c4.5-20.4,11.5-40.1,20.8-58.6c0.6-0.8,1-1.6,1.4-2.5l0.2-0.5
	c9.4-18,20.9-34.9,34.3-50.1c20.4-23,44.6-41.9,72-56.1l37.4-19.3l-14.6,39.5c-10.7,29-26.5,55.3-46.9,78.3
	c-18.2,20.6-39.9,38.1-63.9,51.7c-1.9,1-3.8,2-5.6,3.1c-11,5.9-22.6,11-34.4,15.2l-0.8,0.3L271.3,361.2z M88.2,213.4L73.6,174
	l37.4,19.3c27.4,14.2,51.7,33.1,72,56.1c27.9,31.6,47.5,70.2,56.7,111.7l0.2,0.8l-0.8-0.3c-11.9-4.2-23.4-9.3-34.4-15.2
	c-1.9-1.1-3.7-2.1-5.6-3.1c-24-13.6-45.7-31-63.9-51.7C114.7,268.8,98.9,242.4,88.2,213.4z M62.5,366.3l-27.3-20.2l33.6-5.2
	c25.8-4,51.5-2.9,76.5,3.2c15.5,3.8,30.6,9.6,44.7,17.2c1.6,0.9,3.1,1.7,4.7,2.6c15.1,8.6,29.2,19.2,41.9,31.7
	c-34.5,10.5-70.8,11.6-104.8,3.2C106.9,392.7,83.6,381.7,62.5,366.3z M205.3,449.7c-12.3,8.9-26.4,14.8-41.9,17.7l-15.4,2.8
	l7.5-13.7c7-12.8,16.1-23.6,27.2-32.2c17.3-0.4,34.6-2.8,51.7-7.3C226.9,430.1,217.1,441.2,205.3,449.7z M347.6,467.4
	c-15.5-2.8-29.6-8.8-41.9-17.7c-11.8-8.5-21.6-19.6-29-32.7c17,4.5,34.4,6.9,51.7,7.3c11,8.6,20.2,19.4,27.2,32.2l7.5,13.7
	L347.6,467.4z M448.4,366.3c-21,15.5-44.3,26.5-69.3,32.6c-34.1,8.4-70.3,7.2-104.8-3.2c12.7-12.5,26.8-23.1,41.9-31.7
	c1.6-0.8,3.1-1.7,4.7-2.6c14.2-7.6,29.2-13.4,44.8-17.2c25-6.1,50.7-7.2,76.5-3.2l33.6,5.2L448.4,366.3z"/>
<path class="st1" d="M208.1,132.6c2.6,0,5.2-1.1,7.1-2.9c1.9-1.9,2.9-4.4,2.9-7.1c0-2.6-1.1-5.2-2.9-7.1c-1.9-1.9-4.4-2.9-7.1-2.9
	s-5.2,1.1-7.1,2.9c-1.9,1.9-2.9,4.4-2.9,7.1c0,2.6,1.1,5.2,2.9,7.1C202.9,131.5,205.5,132.6,208.1,132.6z"/>
</svg>
