<svg height="511pt" viewBox="0 0 511.99803 511" width="511pt" xmlns="http://www.w3.org/2000/svg"><path d="m511.707031 337.683594c-.960937-3.921875-4.191406-6.878906-8.179687-7.496094l-57.386719-8.871094c-23.8125-3.683594-47.589844-3.425781-70.875.71875 5.699219-5.394531 11.167969-11.035156 16.371094-16.921875 22.042969-24.921875 39.113281-53.453125 50.734375-84.792969l23.640625-63.769531c1.4375-3.871093.34375-8.226562-2.75-10.964843-3.09375-2.734376-7.550781-3.289063-11.222657-1.390626l-60.394531 31.261719c-28.980469 14.996094-54.65625 34.835938-76.367187 58.957031 3.589844-17.183593 5.417968-34.703124 5.417968-52.402343 0-37.453125-8.421874-75.164063-24.355468-109.0625l-31.359375-66.703125c-1.648438-3.507813-5.171875-5.746094-9.046875-5.746094s-7.402344 2.238281-9.050782 5.746094l-31.355468 66.703125c-1.496094 3.175781-2.941406 6.425781-4.300782 9.660156-2.140624 5.089844.25 10.953125 5.339844 13.09375s10.953125-.25 13.09375-5.339844c1.253906-2.980469 2.589844-5.976562 3.964844-8.90625l22.308594-47.453125 22.304687 47.453125c14.691407 31.25 22.457031 66.023438 22.457031 100.554688 0 27.8125-4.851562 55.15625-14.414062 81.277343l-10.351562 28.261719c-8.308594 16.199219-14.996094 33.257813-19.929688 50.894531-5.023438-17.953124-11.871094-35.3125-20.386719-51.773437l-10.027343-27.382813c-9.566407-26.117187-14.414063-53.464843-14.414063-81.277343 0-8.054688.417969-16.203125 1.242187-24.214844.566407-5.496094-3.429687-10.40625-8.921874-10.972656-5.492188-.570313-10.40625 3.429687-10.972657 8.921875-.894531 8.691406-1.347656 17.527344-1.347656 26.265625 0 17.632812 1.808594 35.085937 5.375 52.207031-21.675781-24.03125-47.289063-43.804688-76.191406-58.765625l-60.398438-31.257813c-3.671875-1.902343-8.128906-1.347656-11.222656 1.390626-3.09375 2.734374-4.1875 7.09375-2.75 10.964843l23.644531 63.765625c11.621094 31.34375 28.691406 59.875 50.734375 84.796875 5.203125 5.882813 10.671875 11.523438 16.367188 16.921875-23.28125-4.144531-47.058594-4.402344-70.875-.71875l-57.382813 8.871094c-3.992187.617188-7.21875 3.574219-8.183594 7.496094-.964843 3.921875.527344 8.039062 3.777344 10.4375l46.738282 34.453125c23.191406 17.09375 48.933593 29.199219 76.511718 35.976562 9.152344 2.246094 18.441406 3.851563 27.808594 4.863281-6.4375 7.167969-12.082031 15.148438-16.863281 23.90625l-17.539063 32.140626c-1.847656 3.382812-1.582031 7.527343.675782 10.648437 1.898437 2.628906 4.929687 4.140625 8.101562 4.140625.597656 0 1.199219-.054688 1.800781-.164062l36.015625-6.589844c18.523438-3.390625 35.390625-10.511719 50.128906-21.171875 11.019532-7.96875 20.597657-17.816407 28.488282-29.171875v64c0 5.523437 4.476562 10 10 10 5.523437 0 10-4.476563 10-10v-64.1875c7.914062 11.433594 17.542968 21.347656 28.621094 29.359375 14.738281 10.660156 31.605468 17.78125 50.128906 21.171875l36.015625 6.589844c.597656.109374 1.203125.164062 1.800781.164062 3.167969 0 6.199219-1.511719 8.101562-4.140625 2.257813-3.125 2.519532-7.265625.675782-10.648437l-17.542969-32.140626c-4.78125-8.757812-10.421875-16.742187-16.859375-23.90625 9.367188-1.011718 18.65625-2.617187 27.808594-4.867187 27.578125-6.773437 53.320312-18.878906 76.511718-35.972656l46.738282-34.453125c3.25-2.398438 4.738281-6.515625 3.773437-10.4375zm-239.84375 23.695312c4.507813-20.429687 11.546875-40.160156 20.847657-58.699218.5625-.753907 1.027343-1.597657 1.367187-2.527344l.203125-.546875c9.371094-18.058594 20.90625-34.945313 34.382812-50.183594 20.402344-23.066406 44.683594-41.976563 72.171876-56.207031l37.4375-19.375-14.65625 39.527344c-10.761719 29.015624-26.5625 55.429687-46.964844 78.496093-18.273438 20.664063-39.980469 38.160157-64.035156 51.773438-1.890626 1.003906-3.769532 2.03125-5.632813 3.089843-11.070313 5.898438-22.601563 10.988282-34.503906 15.195313l-.800781.285156zm-183.484375-148.011718-14.65625-39.527344 37.4375 19.378906c27.488282 14.226562 51.769532 33.136719 72.171875 56.203125 27.976563 31.632813 47.617188 70.347656 56.800781 111.957031l.183594.828125-.800781-.28125c-11.898437-4.207031-23.429687-9.300781-34.496094-15.195312-1.867187-1.058594-3.75-2.089844-5.644531-3.09375-24.054688-13.613281-45.757812-31.109375-64.03125-51.769531-20.402344-23.070313-36.203125-49.484376-46.964844-78.5zm-25.707031 153.109374-27.394531-20.195312 33.632812-5.199219c25.847656-3.996093 51.636719-2.90625 76.644532 3.238281 15.570312 3.824219 30.617187 9.636719 44.832031 17.203126 1.566406.882812 3.144531 1.742187 4.730469 2.589843 15.15625 8.609375 29.296874 19.265625 42.003906 31.761719-34.589844 10.515625-70.894532 11.640625-105.03125 3.25-25.007813-6.144531-48.363282-17.128906-69.417969-32.648438zm143.054687 83.640626c-12.308593 8.898437-26.441406 14.859374-42.011718 17.707031l-15.394532 2.816406 7.496094-13.738281c7.003906-12.832032 16.15625-23.675782 27.226563-32.277344 17.328125-.375 34.714843-2.820312 51.773437-7.316406-7.457031 13.128906-17.304687 24.285156-29.089844 32.808594zm142.554688 17.707031c-15.570312-2.847657-29.703125-8.808594-42.007812-17.707031-11.789063-8.523438-21.636719-19.679688-29.09375-32.808594 17.0625 4.5 34.445312 6.941406 51.777343 7.316406 11.066407 8.601562 20.21875 19.445312 27.222657 32.277344l7.496093 13.738281zm101.042969-101.347657c-21.054688 15.519532-44.410157 26.503907-69.417969 32.648438-34.136719 8.386719-70.441406 7.261719-105.03125-3.25 12.707031-12.496094 26.851562-23.152344 42.007812-31.765625 1.578126-.84375 3.148438-1.699219 4.710938-2.574219 14.21875-7.578125 29.269531-13.390625 44.847656-17.21875 25.007813-6.144531 50.792969-7.230468 76.644532-3.234375l33.632812 5.199219zm0 0"/><path d="m208.507812 132.324219c2.628907 0 5.210938-1.058594 7.070313-2.929688 1.859375-1.859375 2.929687-4.429687 2.929687-7.070312 0-2.628907-1.070312-5.207031-2.929687-7.070313-1.859375-1.859375-4.441406-2.929687-7.070313-2.929687-2.628906 0-5.210937 1.070312-7.070312 2.929687-1.859375 1.863282-2.929688 4.441406-2.929688 7.070313 0 2.640625 1.070313 5.210937 2.929688 7.070312 1.859375 1.871094 4.441406 2.929688 7.070312 2.929688zm0 0"/></svg>