<svg height="480pt" viewBox="0 0 480 480.83554" width="480pt" xmlns="http://www.w3.org/2000/svg"><path d="m200.417969 64h80v16h-80zm0 0"/><path d="m200.417969 96h80v16h-80zm0 0"/><path d="m456.417969 96h-96c-13.253907 0-24 10.746094-24 24v96c0 13.253906 10.746093 24 24 24h40v72c0 4.417969-3.582031 8-8 8h-28.214844c-13.902344-53.523438-60.597656-92.074219-115.785156-95.59375v-80.40625h40c13.253906 0 24-10.746094 24-24v-96c0-13.253906-10.746094-24-24-24h-96c-13.253907 0-24 10.746094-24 24v96c0 13.253906 10.746093 24 24 24h40v80.40625c-55.1875 3.519531-101.882813 42.070312-115.785157 95.59375h-28.214843c-4.417969 0-8-3.582031-8-8v-72h40c13.253906 0 24-10.746094 24-24v-96c0-13.253906-10.746094-24-24-24h-96c-13.253907 0-24 10.746094-24 24v96c0 13.253906 10.746093 24 24 24h40v72c0 13.253906 10.746093 24 24 24h25.113281c-6.546875 49.34375 16.105469 98.007812 58.074219 124.765625 41.972656 26.757813 95.652343 26.757813 137.621093 0 41.972657-26.757813 64.625-75.421875 58.078126-124.765625h25.113281c13.253906 0 24-10.746094 24-24v-72h40c13.253906 0 24-10.746094 24-24v-96c0-13.253906-10.746094-24-24-24zm-272-72c0-4.417969 3.582031-8 8-8h96c4.417969 0 8 3.582031 8 8v8h-112zm0 96v-72h112v72c0 4.417969-3.582031 8-8 8h-96c-4.417969 0-8-3.582031-8-8zm-168 0c0-4.417969 3.582031-8 8-8h96c4.417969 0 8 3.582031 8 8v8h-112zm0 96v-72h112v72c0 4.417969-3.582031 8-8 8h-96c-4.417969 0-8-3.582031-8-8zm224 248c-61.855469 0-112-50.144531-112-112s50.144531-112 112-112 112 50.144531 112 112c-.066407 61.828125-50.171875 111.933594-112 112zm224-248c0 4.417969-3.582031 8-8 8h-96c-4.417969 0-8-3.582031-8-8v-72h112zm-112-88v-8c0-4.417969 3.582031-8 8-8h96c4.417969 0 8 3.582031 8 8v8zm0 0"/><path d="m368.417969 160h80v16h-80zm0 0"/><path d="m368.417969 192h80v16h-80zm0 0"/><path d="m32.417969 160h80v16h-80zm0 0"/><path d="m32.417969 192h80v16h-80zm0 0"/><path d="m438.074219 386.34375c-2.289063-2.285156-5.730469-2.972656-8.71875-1.734375s-4.9375 4.15625-4.9375 7.390625v8h-32c-4.417969 0-8 3.582031-8 8v48c0 4.417969 3.582031 8 8 8h32v8c0 3.234375 1.949219 6.152344 4.9375 7.390625s6.429687.550781 8.71875-1.734375l40-40c3.121093-3.125 3.121093-8.1875 0-11.3125zm1.839843 66.847656c-1.171874-3.125-4.160156-5.195312-7.496093-5.191406h-32v-32h32c3.335937.003906 6.324219-2.066406 7.496093-5.191406l21.191407 21.191406zm0 0"/><path d="m88.417969 400h-32v-8c0-3.234375-1.949219-6.152344-4.9375-7.390625-2.992188-1.238281-6.429688-.550781-8.71875 1.734375l-40 40c-3.121094 3.125-3.121094 8.1875 0 11.3125l40 40c2.289062 2.285156 5.726562 2.972656 8.71875 1.734375 2.988281-1.238281 4.9375-4.15625 4.9375-7.390625v-8h32c4.417969 0 8-3.582031 8-8v-48c0-4.417969-3.582031-8-8-8zm-8 48h-32c-3.335938-.003906-6.324219 2.066406-7.496094 5.191406l-21.191406-21.191406 21.191406-21.191406c1.171875 3.125 4.160156 5.195312 7.496094 5.191406h32zm0 0"/><path d="m296.417969 328c0-17.671875-14.328125-32-32-32v-16h-16v16h-16v-16h-16v16h-24v16h8v80h-8v16h24v16h16v-16h16v16h16v-16c13.34375.058594 25.3125-8.203125 29.984375-20.703125 4.675781-12.496094 1.066406-26.585937-9.039063-35.296875 6.992188-6.019531 11.023438-14.773438 11.054688-24zm-16 48c0 8.835938-7.164063 16-16 16h-48v-32h48c8.835937 0 16 7.164062 16 16zm-64-32v-32h48c8.835937 0 16 7.164062 16 16s-7.164063 16-16 16zm0 0"/></svg>