<?xml version="1.0" encoding="utf-8"?>
<!-- Generator: Adobe Illustrator 21.0.0, SVG Export Plug-In . SVG Version: 6.00 Build 0)  -->
<svg version="1.1" id="Layer_1" xmlns="http://www.w3.org/2000/svg" xmlns:xlink="http://www.w3.org/1999/xlink" x="0px" y="0px"
	 viewBox="0 0 512 512" style="enable-background:new 0 0 512 512;" xml:space="preserve">
<style type="text/css">
	.st0{fill:#FFFFFF;}
</style>
<g>
	<g>
		<path class="st0" d="M256,0C120.5,0,10.2,110.3,10.2,245.8c0,62.2,23.1,121.2,65.2,166.7l-13.7,88.3c-0.6,3.6,1,7.2,3.9,9.3
			c1.7,1.2,3.7,1.8,5.6,1.8c1.5,0,3-0.4,4.4-1.1l79.2-41c31.8,14.4,65.8,21.7,101,21.7c135.5,0,245.8-110.3,245.8-245.8
			C501.8,110.3,391.5,0,256,0z M256,472.2c-34,0-66.6-7.3-97.1-21.8c-2.7-1.3-5.9-1.2-8.6,0.1L83.8,485l11.5-74.2
			c0.5-3-0.5-6-2.6-8.2C52,360.2,29.6,304.5,29.6,245.8C29.6,120.9,131.1,19.3,256,19.3s226.4,101.6,226.4,226.4
			S380.9,472.2,256,472.2z"/>
	</g>
</g>
<g>
	<g>
		<path class="st0" d="M256,70.7c-28.2,0-51.2,23-51.2,51.2s23,51.2,51.2,51.2c28.2,0,51.2-23,51.2-51.2
			C307.2,93.7,284.2,70.7,256,70.7z M256,153.8c-17.6,0-31.9-14.3-31.9-31.9s14.3-31.9,31.9-31.9c17.6,0,31.9,14.3,31.9,31.9
			S273.6,153.8,256,153.8z"/>
	</g>
</g>
<g>
	<g>
		<path class="st0" d="M312.8,357.7h-11V199.1c0-5.3-4.3-9.7-9.7-9.7h-92.8c-5.3,0-9.7,4.3-9.7,9.7v32.1c0,5.3,4.3,9.7,9.7,9.7h11
			v116.8h-11c-5.3,0-9.7,4.3-9.7,9.7v32.1c0,5.3,4.3,9.7,9.7,9.7h113.5c5.3,0,9.7-4.3,9.7-9.7v-32.1
			C322.4,362.1,318.1,357.7,312.8,357.7z M303.1,389.9h-94.2v-12.8h11c5.3,0,9.7-4.3,9.7-9.7V231.3c0-5.3-4.3-9.7-9.7-9.7h-11v-12.8
			h73.5v158.6c0,5.3,4.3,9.7,9.7,9.7h11V389.9z"/>
	</g>
</g>
</svg>
