<?xml version="1.0" encoding="utf-8"?>
<!-- Generator: Adobe Illustrator 21.0.0, SVG Export Plug-In . SVG Version: 6.00 Build 0)  -->
<svg version="1.1" id="Layer_1" xmlns="http://www.w3.org/2000/svg" xmlns:xlink="http://www.w3.org/1999/xlink" x="0px" y="0px"
	 viewBox="0 0 512 512" style="enable-background:new 0 0 512 512;" xml:space="preserve">
<style type="text/css">
	.st0{fill:#1d2982;}
</style>
<g>
	<g>
		<path class="st0" d="M505.7,243.7l-54.8-38.6c-9.9-7-23.6,0.1-23.6,12.3V241h-263c-8.3,0-15,6.7-15,15s6.7,15,15,15h263v23.6
			c0,12.2,13.8,19.2,23.6,12.3l54.8-38.6C514,262.4,514.2,249.8,505.7,243.7z"/>
	</g>
</g>
<g>
	<g>
		<path class="st0" d="M430.5,352.3c-7.2-4.1-16.3-1.7-20.5,5.5c-35.2,60.9-101.1,101.8-176.4,101.8C121.3,459.6,30,368.3,30,256
			S121.3,52.4,233.6,52.4c75.3,0,141.2,40.9,176.4,101.8c4.1,7.2,13.3,9.6,20.5,5.5c7.2-4.1,9.6-13.3,5.5-20.5
			C395.4,69.1,319.7,22.4,233.6,22.4C104.5,22.4,0,126.9,0,256c0,129.1,104.5,233.6,233.6,233.6c86.2,0,161.8-46.8,202.3-116.8
			C440.1,365.6,437.6,356.5,430.5,352.3z"/>
	</g>
</g>
</svg>
