<?xml version="1.0" encoding="utf-8"?>
<!-- Generator: Adobe Illustrator 21.0.0, SVG Export Plug-In . SVG Version: 6.00 Build 0)  -->
<svg version="1.1" id="Capa_1" xmlns="http://www.w3.org/2000/svg" xmlns:xlink="http://www.w3.org/1999/xlink" x="0px" y="0px"
	 viewBox="0 0 56 56" style="enable-background:new 0 0 56 56;" xml:space="preserve">
<style type="text/css">
	.st0{fill:#FFFFFF;}
</style>
<g>
	<path class="st0" d="M8,40c-4.4,0-8,3.6-8,8s3.6,8,8,8s8-3.6,8-8S12.4,40,8,40z M8,54c-3.3,0-6-2.7-6-6s2.7-6,6-6s6,2.7,6,6
		S11.3,54,8,54z"/>
	<path class="st0" d="M28,40c-4.4,0-8,3.6-8,8s3.6,8,8,8s8-3.6,8-8S32.4,40,28,40z M28,54c-3.3,0-6-2.7-6-6s2.7-6,6-6s6,2.7,6,6
		S31.3,54,28,54z"/>
	<path class="st0" d="M48,40c-4.4,0-8,3.6-8,8s3.6,8,8,8s8-3.6,8-8S52.4,40,48,40z M48,54c-3.3,0-6-2.7-6-6s2.7-6,6-6s6,2.7,6,6
		S51.3,54,48,54z"/>
	<path class="st0" d="M8,20c-4.4,0-8,3.6-8,8s3.6,8,8,8s8-3.6,8-8S12.4,20,8,20z M8,34c-3.3,0-6-2.7-6-6s2.7-6,6-6s6,2.7,6,6
		S11.3,34,8,34z"/>
	<path class="st0" d="M28,20c-4.4,0-8,3.6-8,8s3.6,8,8,8s8-3.6,8-8S32.4,20,28,20z M28,34c-3.3,0-6-2.7-6-6s2.7-6,6-6s6,2.7,6,6
		S31.3,34,28,34z"/>
	<path class="st0" d="M48,20c-4.4,0-8,3.6-8,8s3.6,8,8,8s8-3.6,8-8S52.4,20,48,20z M48,34c-3.3,0-6-2.7-6-6s2.7-6,6-6s6,2.7,6,6
		S51.3,34,48,34z"/>
	<path class="st0" d="M8,0C3.6,0,0,3.6,0,8s3.6,8,8,8s8-3.6,8-8S12.4,0,8,0z M8,14c-3.3,0-6-2.7-6-6s2.7-6,6-6s6,2.7,6,6
		S11.3,14,8,14z"/>
	<path class="st0" d="M28,0c-4.4,0-8,3.6-8,8s3.6,8,8,8s8-3.6,8-8S32.4,0,28,0z M28,14c-3.3,0-6-2.7-6-6s2.7-6,6-6s6,2.7,6,6
		S31.3,14,28,14z"/>
	<path class="st0" d="M48,16c4.4,0,8-3.6,8-8s-3.6-8-8-8s-8,3.6-8,8S43.6,16,48,16z M48,2c3.3,0,6,2.7,6,6s-2.7,6-6,6s-6-2.7-6-6
		S44.7,2,48,2z"/>
</g>
</svg>
