<?xml version="1.0" encoding="utf-8"?>
<!-- Generator: Adobe Illustrator 23.0.1, SVG Export Plug-In . SVG Version: 6.00 Build 0)  -->
<svg version="1.1" id="Слой_1" xmlns="http://www.w3.org/2000/svg" xmlns:xlink="http://www.w3.org/1999/xlink" x="0px" y="0px"
	 viewBox="0 0 449 449" style="enable-background:new 0 0 449 449;" xml:space="preserve">
<path d="M103.8,149.7H17.8c-1.9,0-3.7,1-4.8,2.5c-1.1,1.6-1.5,3.5-0.9,5.4L69,340.2c0.8,2.5,3.1,4.2,5.7,4.1h240.5l-9.4,56.4
	c-0.5,3.2-3.2,5.5-6.4,5.5h-14.5c-2.7-18.3-18.4-31.9-36.9-31.9c-18.5,0-34.2,13.6-36.9,31.9h-53c-2.9-19.7-20.7-33.6-40.5-31.7
	s-34.6,19.1-33.6,38.9c1,19.9,17.3,35.5,37.2,35.5c18.1,0.2,33.7-12.9,36.7-30.7h53.4C214.6,436,230,449,248.1,449
	c18,0,33.5-12.9,36.7-30.7h14.7c9,0.1,16.8-6.5,18.2-15.4L367,105.4c2.5-15.3,15.6-26.5,31.1-26.6h34.4c3.3,0,6-2.7,6-6s-2.7-6-6-6
	h-34.4c-21.3,0-39.5,15.5-42.9,36.5l-7.7,46.3h-63.8c-10.8-38.9-47.1-68.6-90-68.6S114.7,110.8,103.8,149.7z M121.3,437.1
	c-14,0-25.3-11.3-25.3-25.3s11.3-25.3,25.3-25.3c14,0,25.3,11.3,25.3,25.3C146.6,425.8,135.3,437.1,121.3,437.1z M248.1,437.1
	c-14,0-25.3-11.3-25.3-25.3c0-14,11.3-25.3,25.3-25.3c14,0,25.3,11.3,25.3,25.3C273.3,425.8,262,437.1,248.1,437.1z M264.2,182.7
	h10.5c-1.7,16.8-8.6,32.7-19.7,45.4l-7.4-7.4C256.8,210,262.6,196.7,264.2,182.7z M123.3,182.7c1.6,13.8,7.2,26.9,16.2,37.5
	l-7.4,7.4c-10.9-12.6-17.6-28.3-19.3-44.9H123.3z M148,228.7c10.3,8.7,22.8,14.3,36.2,16.1v10.5c-16.1-1.9-31.3-8.6-43.6-19.3
	L148,228.7z M196.2,245.4c15.7-0.5,30.8-6.3,42.9-16.3l7.4,7.4c-14,12-31.8,18.8-50.2,19.4V245.4z M193.8,233.5
	c-32.5,0-58.9-26.4-58.9-58.9c0-32.5,26.4-58.9,58.9-58.9c32.5,0,58.9,26.4,58.9,58.9C252.6,207.1,226.3,233.5,193.8,233.5z
	 M239.4,120.4c-12.1-10.2-27.3-16.1-43.2-16.6V93.4c18.6,0.5,36.5,7.5,50.6,19.6L239.4,120.4z M184.2,104.3
	c-13.5,1.8-26.2,7.5-36.5,16.4l-7.4-7.4c12.3-10.8,27.6-17.6,43.9-19.5V104.3z M139.3,129.3c-9.7,11.7-15.5,26.2-16.3,41.4h-10.4
	c0.2-4.5,0.8-9,1.8-13.5c0,0,0-0.1,0-0.1c2.9-13,8.9-25,17.5-35.1L139.3,129.3z M345.5,161.7l-28.3,170.7H79.1L25.9,161.7h75.5
	c-5,36,11.5,71.7,42.1,91.3s69.9,19.6,100.5,0c30.6-19.6,47.1-55.2,42.1-91.3H345.5z M273.1,157.1c0,0.1,0,0.1,0,0.2
	c1,4.4,1.6,8.9,1.8,13.4h-10.4c-0.8-15.4-6.7-30.1-16.7-41.9l7.4-7.4C264.1,131.7,270.2,143.9,273.1,157.1z"/>
<path d="M196.2,67.9V6c0-3.3-2.7-6-6-6c-3.3,0-6,2.7-6,6v61.9c0,3.3,2.7,6,6,6C193.5,73.9,196.2,71.2,196.2,67.9z"/>
<path d="M225.1,67.9V19c0-3.3-2.7-6-6-6c-3.3,0-6,2.7-6,6v48.9c0,3.3,2.7,6,6,6C222.4,73.9,225.1,71.2,225.1,67.9z"/>
<path d="M169.2,67.9V19c0-3.3-2.7-6-6-6s-6,2.7-6,6v48.9c0,3.3,2.7,6,6,6S169.2,71.2,169.2,67.9z"/>
<path d="M245.1,74.9V31.9c0-3.3-2.7-6-6-6s-6,2.7-6,6v42.9c0,3.3,2.7,6,6,6S245.1,78.2,245.1,74.9z"/>
<path d="M148.3,74.9V31.9c0-3.3-2.7-6-6-6s-6,2.7-6,6v42.9c0,3.3,2.7,6,6,6S148.3,78.2,148.3,74.9z"/>
</svg>
