<?xml version="1.0" encoding="utf-8"?>
<!-- Generator: Adobe Illustrator 21.0.0, SVG Export Plug-In . SVG Version: 6.00 Build 0)  -->
<svg version="1.1" id="Layer_1" xmlns="http://www.w3.org/2000/svg" xmlns:xlink="http://www.w3.org/1999/xlink" x="0px" y="0px"
	 viewBox="0 0 460 460" style="enable-background:new 0 0 460 460;" xml:space="preserve">
<style type="text/css">
	.st0{fill:#FFFFFF;}
</style>
<g transform="translate(0 -540.36)">
	<g>
		<g>
			<path class="st0" d="M420.2,686.1l-0.8,0.8C387.2,613.2,315.2,565.2,235.6,563l0,0c-81-2.3-156.1,42.8-191.4,115.5
				c-4.5,9,9,15.8,13.5,6.8c33-67.5,102.1-108.8,177.1-107.3c73.5,2.3,138.8,45,169.6,111.8c-14.3,6-24,20.3-24,36.8
				c0,21.8,18,39.8,39.8,39.8s39.8-18,39.8-39.8C460,704.1,442,686.1,420.2,686.1z M420.2,751.3c-14.3,0-24.8-11.3-24.8-24.8
				c0.1-14.2,10.6-25.5,24.8-25.5c14.3,0,24.8,11.3,24.8,25.5C445,740,434.5,751.3,420.2,751.3z"/>
			<path class="st0" d="M408.3,851C376,920,307,964.3,231.2,962.8c-75.8-0.8-143.3-45-174.1-114c13.5-6.8,23.3-20.3,23.3-36
				C80.3,791.1,62.3,773,39.8,773C18,773,0,791,0,812.8c0,22.5,18,40.5,39.8,40.5c1.5,0,2.3-0.8,3-0.8c0,0,0,0,0,0.8
				c32.3,75,105.8,123.8,187.6,124.5c81.8,1.5,156.8-45.8,191.4-120C425.6,848.8,412,842,408.3,851z M39.8,838.4
				c-13.5,0-24.8-11.3-24.8-25.5c0-13.6,11.3-24.8,24.8-24.8c14.3,0,25.5,11.3,25.5,24.8C65.3,827.2,54,838.4,39.8,838.4z"/>
			<path class="st0" d="M230.4,685.1L230.4,685.1c-4.5,0.8-7.5,3.8-7.5,8.3v20.3c-2.3,0.8-3.8,0.8-6,1.5
				c-14.3,6-22.5,21.8-19.5,36.8s16.5,26.3,32.3,26.3h0.8c9,0,15.8,6,17.3,14.3c2.3,8.3-2.3,15.8-9.8,19.5c-8.3,3-17.3,0-21.8-6.8
				c-5.3-9-18,0-12,8.3c4.5,6.8,11.3,11.3,18.8,13.5v21c-0.8,10.5,15,10.5,15,0v-21c1.5,0,3.8-0.8,5.3-1.5c14.3-6,22.5-21,19.5-36
				c-3-15.8-16.5-26.3-32.3-26.3h-0.8c-8.3,0-15.8-6-17.3-14.3s2.3-16.5,10.5-19.5c7.5-3,16.5-0.8,21,6.8c6,8.3,18,0,12.8-9
				c-4.5-6-10.5-10.5-18-12.8h-0.8v-21C237.9,688.8,234.1,685.1,230.4,685.1z"/>
		</g>
	</g>
</g>
</svg>
