<?xml version="1.0" encoding="utf-8"?>
<!-- Generator: Adobe Illustrator 23.0.1, SVG Export Plug-In . SVG Version: 6.00 Build 0)  -->
<svg version="1.1" id="Layer_1" xmlns="http://www.w3.org/2000/svg" xmlns:xlink="http://www.w3.org/1999/xlink" x="0px" y="0px"
	 viewBox="0 0 496.2 496.2" style="enable-background:new 0 0 496.2 496.2;" xml:space="preserve">
<style type="text/css">
	.st0{fill:#E02424;}
	.st1{fill:#FFFFFF;}
</style>
<path class="st0" d="M496.2,248.1C496.2,111.1,385.1,0,248.1,0C111.1,0,0,111.1,0,248.1c0,137,111.1,248.1,248.1,248.1
	C385.1,496.2,496.2,385.1,496.2,248.1z"/>
<path class="st1" d="M277,248.1l72.5-84.2c7.9-9.2,6.9-23-2.3-31c-9.2-7.9-23-6.9-30.9,2.3l-68.2,79.2l-68.2-79.2
	c-7.9-9.2-21.8-10.2-31-2.3c-9.2,7.9-10.2,21.8-2.3,31l72.5,84.2l-72.5,84.2c-7.9,9.2-6.9,23,2.3,31c4.1,3.6,9.2,5.3,14.3,5.3
	c6.2,0,12.3-2.6,16.6-7.6l68.2-79.2l68.2,79.2c4.3,5,10.5,7.6,16.6,7.6c5.1,0,10.2-1.7,14.3-5.3c9.2-7.9,10.2-21.8,2.3-31L277,248.1
	z"/>
</svg>
