<?xml version="1.0" encoding="utf-8"?>
<!-- Generator: Adobe Illustrator 21.0.0, SVG Export Plug-In . SVG Version: 6.00 Build 0)  -->
<svg version="1.1" id="Capa_1" xmlns="http://www.w3.org/2000/svg" xmlns:xlink="http://www.w3.org/1999/xlink" x="0px" y="0px"
	 viewBox="0 0 512 512" style="enable-background:new 0 0 512 512;" xml:space="preserve">
<style type="text/css">
	.st0{fill:#4169E2;}
</style>
<g>
	<g>
		<path class="st0" d="M492,222h-12v-43.8c0-16.9-13.7-30.6-30.6-30.6h-12.7c-3.8,0-7.5,0.7-10.9,2c-2-15-14.8-26.6-30.4-26.6h-40.7
			c-16.9,0-30.6,13.7-30.6,30.6v68.6H188v-68.6c0-16.9-13.7-30.6-30.6-30.6h-40.7c-15.5,0-28.4,11.6-30.4,26.6
			c-3.4-1.3-7.1-2-10.9-2H62.6c-16.9,0-30.6,13.7-30.6,30.6V222H20c-11,0-20,9-20,20v28c0,11,9,20,20,20h12v43.8
			c0,16.9,13.7,30.6,30.6,30.6h12.7c3.8,0,7.5-0.7,10.9-2c2,15,14.8,26.6,30.4,26.6h40.7c16.9,0,30.6-13.7,30.6-30.6V290h136v68.4
			c0,16.9,13.7,30.6,30.6,30.6h40.7c15.5,0,28.4-11.6,30.4-26.6c3.4,1.3,7.1,2,10.9,2h12.7c16.9,0,30.6-13.7,30.6-30.6V290h12
			c11,0,20-9,20-20v-28C512,231,503,222,492,222z M32,270H20v-28h12V270z M86,333.8c0,5.9-4.8,10.6-10.6,10.6H62.6
			c-5.9,0-10.6-4.8-10.6-10.6V280v-48v-53.8c0-5.9,4.8-10.6,10.6-10.6h12.7c5.9,0,10.6,4.8,10.6,10.6V333.8z M168,358.4L168,358.4
			c0,5.9-4.8,10.6-10.6,10.6H138v-81.5c0-5.5-4.5-10-10-10s-10,4.5-10,10V369h-1.4c-5.9,0-10.6-4.8-10.6-10.6v-24.6V178.2v-24.6
			c0-5.9,4.8-10.6,10.6-10.6h40.7c5.9,0,10.6,4.8,10.6,10.6L168,358.4L168,358.4z M324,270H188v-27.8h136V270z M406,178.2v155.5
			v24.6c0,5.9-4.8,10.6-10.6,10.6h-40.7c-5.9,0-10.6-4.8-10.6-10.6V153.6c0-5.9,4.8-10.6,10.6-10.6H374v81.5c0,5.5,4.5,10,10,10
			s10-4.5,10-10V143h1.4c5.9,0,10.6,4.8,10.6,10.6V178.2z M460,232v48v53.8c0,5.9-4.8,10.6-10.6,10.6h-12.7
			c-5.9,0-10.6-4.8-10.6-10.6V178.2c0-5.9,4.8-10.6,10.6-10.6h12.7c5.9,0,10.6,4.8,10.6,10.6V232z M492,270h-12v-28h12V270z"/>
	</g>
</g>
<g>
	<g>
		<path class="st0" d="M391.1,255.1c-1.9-1.9-4.4-2.9-7.1-2.9s-5.2,1.1-7.1,2.9c-1.9,1.9-2.9,4.4-2.9,7.1c0,2.6,1.1,5.2,2.9,7.1
			c1.9,1.9,4.4,2.9,7.1,2.9s5.2-1.1,7.1-2.9c1.9-1.9,2.9-4.5,2.9-7.1C394,259.6,392.9,257,391.1,255.1z"/>
	</g>
</g>
<g>
	<g>
		<path class="st0" d="M135.1,242.7c-1.9-1.9-4.4-2.9-7.1-2.9s-5.2,1.1-7.1,2.9c-1.9,1.9-2.9,4.4-2.9,7.1s1.1,5.2,2.9,7.1
			s4.4,2.9,7.1,2.9c2.6,0,5.2-1.1,7.1-2.9s2.9-4.4,2.9-7.1S136.9,244.6,135.1,242.7z"/>
	</g>
</g>
</svg>
