<?xml version="1.0" encoding="utf-8"?>
<!-- Generator: Adobe Illustrator 21.0.0, SVG Export Plug-In . SVG Version: 6.00 Build 0)  -->
<svg version="1.1" id="Layer_1" xmlns="http://www.w3.org/2000/svg" xmlns:xlink="http://www.w3.org/1999/xlink" x="0px" y="0px"
	 viewBox="0 0 512 512" style="enable-background:new 0 0 512 512;" xml:space="preserve">
<style type="text/css">
	.st0{fill:#4169E2;}
</style>
<g>
	<g>
		<path class="st0" d="M437,75C388.7,26.6,324.4,0,256,0S123.3,26.6,75,75C26.6,123.3,0,187.6,0,256s26.6,132.7,75,181
			c48.4,48.4,112.6,75,181,75s132.7-26.6,181-75c48.4-48.4,75-112.6,75-181S485.4,123.3,437,75z M256,491.6
			C126.1,491.6,20.4,385.9,20.4,256S126.1,20.4,256,20.4S491.6,126.1,491.6,256S385.9,491.6,256,491.6z"/>
	</g>
</g>
<g>
	<g>
		<path class="st0" d="M462.1,298.1c-5.5-1.4-11,1.9-12.4,7.4c-5.7,22.3-15.2,43.4-28.1,62.5c-3.2,4.7-1.9,11,2.7,14.2
			c1.8,1.2,3.7,1.8,5.7,1.8c3.3,0,6.5-1.6,8.5-4.5c14.3-21.1,24.8-44.3,31-68.9C470.9,305.1,467.6,299.5,462.1,298.1z"/>
	</g>
</g>
<g>
	<g>
		<path class="st0" d="M466.1,245.8c-5.6,0-10.2,4.6-10.2,10.2c0,2.9-0.1,5.9-0.2,8.7c-0.2,5.6,4.1,10.4,9.7,10.6c0.1,0,0.3,0,0.4,0
			c5.4,0,9.9-4.3,10.2-9.8c0.1-3.2,0.2-6.4,0.2-9.6C476.3,250.4,471.7,245.8,466.1,245.8z"/>
	</g>
</g>
<g>
	<g>
		<path class="st0" d="M256,172.9c-19.7,0-35.7,16-35.7,35.7V386c0,19.7,16,35.7,35.7,35.7c19.7,0,35.7-16,35.7-35.7V208.6
			C291.7,188.9,275.7,172.9,256,172.9z M271.3,386c0,8.4-6.9,15.3-15.3,15.3s-15.3-6.9-15.3-15.3V208.6c0-8.4,6.9-15.3,15.3-15.3
			c8.4,0,15.3,6.9,15.3,15.3V386z"/>
	</g>
</g>
<g>
	<g>
		<path class="st0" d="M281.2,100.7c-6.7-6.6-15.9-10.4-25.2-10.4c-9.4,0-18.6,3.8-25.2,10.5c-6.6,6.6-10.5,15.8-10.5,25.2
			c0,9.4,3.8,18.6,10.5,25.3c6.7,6.6,15.9,10.4,25.2,10.4c9.4,0,18.6-3.8,25.3-10.5c6.6-6.7,10.4-15.9,10.4-25.2
			C291.7,116.6,287.9,107.4,281.2,100.7z M266.8,136.8c-2.9,2.9-6.8,4.5-10.8,4.5c-4,0-8-1.6-10.8-4.5c-2.9-2.9-4.5-6.8-4.5-10.8
			c0-4,1.6-8,4.5-10.8c2.9-2.8,6.8-4.5,10.8-4.5c4,0,8,1.6,10.8,4.5c2.8,2.8,4.5,6.8,4.5,10.8C271.3,130,269.7,133.9,266.8,136.8z"
			/>
	</g>
</g>
</svg>
