<?xml version="1.0" encoding="utf-8"?>
<!-- Generator: Adobe Illustrator 23.0.1, SVG Export Plug-In . SVG Version: 6.00 Build 0)  -->
<svg version="1.1" id="Layer_1" xmlns="http://www.w3.org/2000/svg" xmlns:xlink="http://www.w3.org/1999/xlink" x="0px" y="0px"
	 viewBox="0 0 551 551" style="enable-background:new 0 0 551 551;" xml:space="preserve">
<style type="text/css">
	.st0{fill:url(#SVGID_1_);}
	.st1{fill:url(#SVGID_2_);}
	.st2{fill:url(#SVGID_3_);}
</style>
<g>
	
		<linearGradient id="SVGID_1_" gradientUnits="userSpaceOnUse" x1="275.517" y1="1195.4301" x2="275.517" y2="650.28" gradientTransform="matrix(1 0 0 1 0 -646)">
		<stop  offset="0" style="stop-color:#E09B3D"/>
		<stop  offset="0.3" style="stop-color:#C74C4D"/>
		<stop  offset="0.6" style="stop-color:#C21975"/>
		<stop  offset="1" style="stop-color:#7024C4"/>
	</linearGradient>
	<path class="st0" d="M386.9,0H164.2C73.6,0,0,73.6,0,164.2v222.7C0,477.4,73.6,551,164.2,551h222.7c90.5,0,164.2-73.6,164.2-164.2
		V164.2C551,73.6,477.4,0,386.9,0z M495.6,386.9c0,60-48.7,108.7-108.7,108.7H164.2c-60,0-108.7-48.7-108.7-108.7V164.2
		c0-60,48.7-108.7,108.7-108.7h222.7c60,0,108.7,48.7,108.7,108.7L495.6,386.9L495.6,386.9z"/>
	
		<linearGradient id="SVGID_2_" gradientUnits="userSpaceOnUse" x1="275.517" y1="1195.4301" x2="275.517" y2="650.28" gradientTransform="matrix(1 0 0 1 0 -646)">
		<stop  offset="0" style="stop-color:#E09B3D"/>
		<stop  offset="0.3" style="stop-color:#C74C4D"/>
		<stop  offset="0.6" style="stop-color:#C21975"/>
		<stop  offset="1" style="stop-color:#7024C4"/>
	</linearGradient>
	<path class="st1" d="M275.5,133C196.9,133,133,196.9,133,275.5S196.9,418,275.5,418S418,354.1,418,275.5S354.1,133,275.5,133z
		 M275.5,362.6c-48.1,0-87.1-39-87.1-87.1s39-87.1,87.1-87.1c48.1,0,87.1,39,87.1,87.1C362.6,323.6,323.6,362.6,275.5,362.6z"/>
	
		<linearGradient id="SVGID_3_" gradientUnits="userSpaceOnUse" x1="418.31" y1="1195.4301" x2="418.31" y2="650.28" gradientTransform="matrix(1 0 0 1 0 -646)">
		<stop  offset="0" style="stop-color:#E09B3D"/>
		<stop  offset="0.3" style="stop-color:#C74C4D"/>
		<stop  offset="0.6" style="stop-color:#C21975"/>
		<stop  offset="1" style="stop-color:#7024C4"/>
	</linearGradient>
	<circle class="st2" cx="418.3" cy="134.1" r="34.1"/>
</g>
</svg>
