<?xml version="1.0" encoding="utf-8"?>
<!-- Generator: Adobe Illustrator 23.0.1, SVG Export Plug-In . SVG Version: 6.00 Build 0)  -->
<svg version="1.1" id="Слой_2" xmlns="http://www.w3.org/2000/svg" xmlns:xlink="http://www.w3.org/1999/xlink" x="0px" y="0px"
	 viewBox="0 0 1507.6 395.7" style="enable-background:new 0 0 1507.6 395.7;" xml:space="preserve">
<style type="text/css">
	.st0{fill:#FFFFFF;stroke:#FFFFFF;stroke-width:2.9382;stroke-miterlimit:10;}
	.st1{fill:#FFFFFF;}
	.st2{fill:none;}
</style>
<g>
	<path class="st0" d="M417,261.6V145.1c0-7.7,6.3-14,14-14h47.9c10.7,0,19.6,0.5,26.8,1.5c7.2,1,13,2.8,17.2,5.4
		c4.3,2.6,7.3,6.3,9.1,11.2c1.8,4.8,2.7,11,2.7,18.7c0,5.7-0.4,10.4-1.1,14.2s-1.9,6.9-3.5,9.6c-1.6,2.6-3.5,4.8-5.9,6.6
		c-2.3,1.8-5,3.5-8,5c3,1.5,5.7,3.1,8.2,4.8c2.5,1.7,4.6,3.9,6.3,6.5c1.7,2.6,3,5.9,3.9,9.7c0.9,3.8,1.4,8.5,1.4,14.1
		c0,7.7-0.9,13.9-2.8,18.8c-1.9,4.9-5,8.7-9.3,11.4c-4.4,2.7-10.1,4.6-17.3,5.6c-7.2,1.1-16.1,1.6-26.8,1.6H431
		C423.2,275.7,417,269.4,417,261.6z M483,196.6c6.6,0,12.2-0.2,16.7-0.7c4.5-0.5,8.1-1.6,10.9-3.4c2.8-1.8,4.8-4.6,6-8.3
		c1.2-3.8,1.8-9,1.8-15.8c0-5.6-0.7-10-2.1-13.3c-1.4-3.3-3.7-5.8-6.8-7.4c-3.1-1.6-7.1-2.7-12.1-3.2c-5-0.5-11-0.7-18-0.7h-43.6
		c-1.4,0-2.6,1.1-2.6,2.6v50.1H483z M480.3,262.8c7.1,0,13.1-0.1,18.1-0.3c5-0.2,9.1-1.1,12.3-2.6c3.2-1.5,5.4-3.9,6.9-7.3
		c1.4-3.4,2.1-8.1,2.1-14.3c0-7.4-0.7-13-2-16.9c-1.4-3.9-3.5-6.7-6.4-8.4c-2.9-1.7-6.7-2.7-11.4-3c-4.7-0.3-10.3-0.4-16.9-0.4
		h-49.8v50.8c0,1.4,1.1,2.6,2.6,2.6H480.3z"/>
	<path class="st1" d="M561.9,275.5V130.9h16.2v144.6H561.9z"/>
	<path class="st1" d="M652.6,275.5V143.7h-51.1l2.3-12.8h119.1l-2.3,12.8h-51.8v131.8H652.6z"/>
	<path class="st1" d="M1025.8,275.7V151.4h-0.7l-52.6,124.3h-17.2l-52.6-124.3h-0.7v124.3h-15v-142h23.9l43.8,102.2l9.3,26.8
		l9.3-26.8l43.8-102.2h23.9v142H1025.8z"/>
	<path class="st1" d="M1201.8,275.9c-7.4-1-12.8-3.2-16.4-6.4c-3.5-3.2-5.9-8.5-7.1-15.7c-5.2,7.8-12,13.8-20.7,17.9
		c-8.6,4.1-19.1,6.2-31.5,6.2c-8.4,0-16.1-0.7-23.1-2c-7-1.3-13-3.6-18-7c-5-3.3-8.9-7.8-11.7-13.5c-2.8-5.7-4.2-12.8-4.2-21.3
		c0-8.5,1.4-15.7,4.2-21.3c2.8-5.7,6.7-10.2,11.7-13.5c5-3.3,11-5.6,18-7c7-1.3,14.7-2,23.1-2h48.2c-0.4-10.9-1.5-19.5-3.3-25.8
		c-1.8-6.3-4.5-10.9-8.1-14c-3.6-3.1-8.3-5-13.9-5.9c-5.7-0.8-12.7-1.2-21.1-1.2c-4.4,0-8.8,0.3-13,0.9c-4.3,0.6-8.3,1.3-12.1,2.2
		c-3.8,0.9-7.2,1.8-10.3,2.8c-3.1,1-5.7,1.8-7.7,2.5l-7.3-11.7c6.2-2.9,13.6-5.2,22.3-6.9c8.7-1.6,18.2-2.4,28.5-2.4
		c11.9,0,21.9,0.9,30,2.7c8,1.8,14.4,5.2,19.2,10.4c4.8,5.2,8.2,12.5,10.3,22.1c2.1,9.6,3.1,22.2,3.1,37.8v3.5v24.8
		c0,5.6,0.3,10.3,0.8,14c0.5,3.8,1.3,6.9,2.3,9.3c1,2.4,2.4,4.3,4.1,5.6c1.7,1.3,3.7,2.3,6.1,2.9L1201.8,275.9z M1174.6,203.2h-48.4
		c-6.2,0-11.9,0.3-17,1c-5.2,0.7-9.6,2.1-13.3,4.2c-3.7,2.1-6.6,5.2-8.6,9.3c-2.1,4.1-3.1,9.5-3.1,16.5c0,6.9,1,12.4,3.1,16.5
		c2.1,4.1,5,7.2,8.7,9.3c3.8,2.1,8.2,3.5,13.4,4.2c5.2,0.7,10.8,1,17,1c10.5,0,18.9-1.3,25.2-4c6.3-2.7,11.2-6.6,14.6-11.8
		c3.4-5.2,5.6-11.6,6.7-19.2c1.1-7.6,1.7-16.4,1.7-26.4V203.2z"/>
	<path class="st1" d="M1352.8,275.7c-3.7,0.6-7.1,0.8-10.3,0.6c-3.2-0.2-6.3-1.1-9.4-2.8c-3.1-1.6-6.3-4.1-9.6-7.3
		c-3.3-3.2-7-7.7-11.2-13.3l-20.8-28.3h-4h-41.4v51.1h-15.9V147.5c0-7.6,6.2-13.8,13.8-13.8h43.5c10.5,0,19.2,0.6,26.3,1.7
		c7.1,1.1,12.7,3.3,17,6.5c4.3,3.2,7.3,7.9,9.2,13.8c1.8,6,2.8,13.8,2.8,23.6c0,7.8-0.6,14.4-1.7,19.7c-1.1,5.3-3,9.7-5.5,13
		c-2.6,3.4-6,6-10.2,7.9c-4.2,1.8-9.4,3.1-15.6,3.9l17,22.1c3.4,4.4,6.3,7.9,8.8,10.4c2.5,2.5,4.8,4.4,7,5.6c2.1,1.3,4.2,2,6.2,2.2
		c2,0.2,4.1,0.2,6.3-0.1L1352.8,275.7z M1288,212c6.9,0,12.8-0.3,17.7-0.8c4.9-0.5,8.8-1.8,11.8-4c3-2.1,5.2-5.4,6.6-9.7
		c1.4-4.3,2.1-10.4,2.1-18.2c0-8.1-0.7-14.4-2.1-18.8c-1.4-4.4-3.6-7.7-6.6-9.7c-3-2.1-7-3.3-11.8-3.8c-4.9-0.4-10.8-0.7-17.7-0.7
		h-39.3c-1.4,0-2.5,1.1-2.5,2.5V212H1288z"/>
	<path class="st1" d="M1413.2,275.7V146.4H1363l2.2-12.6h117l-2.2,12.6h-50.9v129.4H1413.2z"/>
	<path class="st1" d="M320.3,105.8c0.4-1.4,0.9-2.8,1.3-4.2c2.9-10,5.2-20,6.8-30.2l1.9-11.6l-11.5,1.9c-10.1,1.7-20.1,4-30,6.8
		c-1,0.3-1.9,0.6-2.9,0.9c-27.3-21-61.5-33.6-98.6-33.6C98,35.9,25.4,108.6,25.4,197.9c0,38.1,13.2,73.1,35.3,100.7l15.9-15.9
		c-18.1-23.5-28.9-53-28.9-84.9c0-77,62.6-139.6,139.6-139.6c27,0,52.3,7.8,73.7,21.1c-0.5,0.3-1,0.5-1.5,0.7
		c5.4,1,10.6,1.2,15.8,1.5c5.2,0.2,10.4,0.1,15.6-0.1c6.5-0.3,13-0.9,19.4-1.7c-0.8,6.5-1.5,13-1.8,19.6c-0.2,5.2-0.3,10.4-0.1,15.7
		c0.3,5.3,0.5,10.5,1.5,15.9l-0.4-0.4c11,19.9,17.3,42.8,17.3,67.2c0,77-62.6,139.6-139.6,139.6c-35,0-67.1-13-91.6-34.4l-15.8,15.8
		c28.6,25.4,66.2,40.9,107.4,40.9c89.3,0,161.9-72.6,161.9-161.9C349.2,163.6,338.4,132,320.3,105.8z"/>
	<path class="st2" d="M122,177.5l0-1.5v0C122,176.5,122,177,122,177.5z"/>
	<path class="st1" d="M122,173.7l0,2.3C122,175.2,122,174.4,122,173.7z"/>
	<path class="st1" d="M122,177.5l1.3,61.7l26.1-26.1c0.2-0.2,0.4-0.4,0.6-0.6l7.1-7.1l0-0.2C157.1,205.2,123.2,206.1,122,177.5z"/>
	<path class="st1" d="M246,183.6c1.9-3.2,3.3-7,4.2-11.5c0.9-4.5,1.4-10.2,1.4-17.1c0-0.1,0-0.3,0-0.4l-33.1,33.1
		c7.8,0,13.9,2.1,18.6,5.3c0.6-0.4,1.2-0.9,1.8-1.4C241.7,189.4,244.1,186.8,246,183.6z"/>
	<path class="st1" d="M253.2,239.2c0,0,3-33.1-16.1-46.3l0,0c0,0-0.1,0-0.1-0.1c-0.2-0.1-0.3-0.2-0.5-0.3c-0.2-0.1-0.3-0.2-0.5-0.3
		c-0.2-0.1-0.3-0.2-0.5-0.3c-0.2-0.1-0.4-0.2-0.5-0.3c-0.2-0.1-0.3-0.2-0.5-0.3c-0.2-0.1-0.4-0.2-0.6-0.3c-0.2-0.1-0.3-0.2-0.5-0.2
		c-0.3-0.1-0.5-0.3-0.8-0.4c-0.1,0-0.2-0.1-0.3-0.1c-0.4-0.2-0.8-0.3-1.2-0.5c-0.1,0-0.1,0-0.2-0.1c-0.3-0.1-0.7-0.2-1-0.4
		c-0.1,0-0.2-0.1-0.3-0.1c-0.3-0.1-0.6-0.2-0.9-0.3c-0.1,0-0.2-0.1-0.4-0.1c-0.3-0.1-0.7-0.2-1-0.3c-0.1,0-0.1,0-0.2,0h0
		c-2.6-0.6-5.5-0.9-8.6-0.9l-0.2,0.2h-63.8c-1.1-0.4-2.2-0.9-3.2-1.5c-3.5-2.1-6.1-5.5-7.7-10.2c-1-2.8-1.6-6.5-2-10.8v-14.9h-0.3
		c0.3-4.9,1.1-8.9,2.4-11.9c1.7-4.1,4.5-7,8.3-8.8c3.8-1.8,8.7-2.8,14.8-3.1c5.7-0.3,12.6-0.4,20.5-0.4v0c7.4,0,13.9,0.3,19.3,0.8
		c6,0.5,10.8,1.8,14.5,3.8c2.3,1.3,4.2,2.9,5.8,5l14.1-14.1c-1.1-1-2.3-1.8-3.6-2.6c-5.2-3.2-12.1-5.3-20.8-6.5
		c-8-1.1-17.8-1.6-29.3-1.7c-12,0.1-22.1,0.7-30.4,1.9c-8.7,1.3-15.6,3.5-20.9,6.8c-5.2,3.3-9,7.8-11.3,13.7
		c-1.8,4.7-2.9,10.5-3.2,17.3l0.5,23.2c0,0.7,0,1.5,0,2.3l0,1.5c1.1,28.7,35.1,27.7,35.1,27.7l0,0.2l0,0H203
		c2.3,0.1,4.4,0.2,6.4,0.3c5.6,0.4,10.2,1.6,13.7,3.7c3.5,2.1,6.1,5.5,7.7,10.2c1.6,4.7,2.4,11.5,2.4,20.4c0,7.4-0.9,13.2-2.6,17.2
		c-1.7,4.1-4.5,7-8.3,8.8c-3.8,1.8-8.7,2.8-14.8,3.1c-5.7,0.3-12.6,0.4-20.5,0.4v0c-7.4,0-13.9-0.3-19.3-0.8
		c-6-0.5-10.8-1.8-14.5-3.8c-2.7-1.4-4.8-3.4-6.4-5.8l-14.2,14.2c1.3,1.3,2.7,2.4,4.4,3.4c5.2,3.2,12.1,5.3,20.8,6.5
		c8,1.1,17.8,1.6,29.3,1.7c12-0.1,22.1-0.7,30.4-1.9c8.7-1.3,15.6-3.5,20.9-6.8c5.2-3.3,9-7.8,11.3-13.7c2.3-5.9,3.4-13.4,3.4-22.7
		c0-0.2,0-0.3,0-0.5L253.2,239.2z"/>
	<path class="st1" d="M857.1,238.2c0,0,2.5-27.7-13.4-38.7c0,0,0,0,0,0c0,0-0.1,0-0.1,0c-0.2-0.1-0.3-0.2-0.4-0.3
		c-0.1-0.1-0.3-0.2-0.4-0.3c-0.1-0.1-0.3-0.2-0.4-0.3c-0.1-0.1-0.3-0.2-0.4-0.3c-0.1-0.1-0.3-0.2-0.4-0.2c-0.2-0.1-0.3-0.2-0.5-0.3
		c-0.1-0.1-0.3-0.1-0.4-0.2c-0.2-0.1-0.5-0.2-0.7-0.3c-0.1,0-0.2-0.1-0.2-0.1c-0.3-0.1-0.6-0.3-1-0.4c-0.1,0-0.1,0-0.2-0.1
		c-0.3-0.1-0.6-0.2-0.9-0.3c-0.1,0-0.2-0.1-0.3-0.1c-0.3-0.1-0.5-0.2-0.8-0.2c-0.1,0-0.2-0.1-0.3-0.1c-0.3-0.1-0.5-0.1-0.8-0.2
		c-0.1,0-0.1,0-0.2,0h0c-2.2-0.5-4.6-0.8-7.2-0.8l-0.2,0.2h-53.3c-0.9-0.4-1.8-0.8-2.6-1.3c-2.9-1.7-5.1-4.6-6.5-8.5
		c-0.8-2.4-1.4-5.4-1.7-9V164h-0.2c0.3-4.1,0.9-7.4,2-9.9c1.4-3.4,3.7-5.9,6.9-7.4c3.2-1.5,7.3-2.4,12.4-2.6
		c4.8-0.2,10.5-0.3,17.1-0.3v0c6.2,0,11.6,0.3,16.1,0.7c5,0.5,9,1.5,12.1,3.2c1.9,1,3.5,2.5,4.8,4.2l11.8-11.8
		c-0.9-0.8-1.9-1.5-3-2.2c-4.3-2.6-10.1-4.5-17.3-5.4c-6.7-0.9-14.9-1.4-24.5-1.4c-10,0.1-18.5,0.6-25.4,1.6
		c-7.3,1.1-13.1,2.9-17.5,5.7c-4.4,2.7-7.5,6.5-9.4,11.5c-1.5,3.9-2.4,8.8-2.7,14.5l0.4,19.4c0,0.6,0,1.2,0,1.9l0,1.2
		c1,23.9,29.3,23.2,29.3,23.2l0,0.2l0,0h38.3c1.9,0.1,3.7,0.1,5.4,0.3c4.7,0.3,8.5,1.3,11.4,3.1c2.9,1.7,5.1,4.6,6.5,8.5
		c1.4,3.9,2,9.6,2,17c0,6.2-0.7,11-2.2,14.4c-1.4,3.4-3.7,5.9-6.9,7.4c-3.2,1.5-7.3,2.4-12.4,2.6c-4.8,0.2-10.5,0.3-17.1,0.3v0
		c-6.2,0-11.6-0.3-16.1-0.7c-5-0.5-9-1.5-12.1-3.2c-2.2-1.2-4-2.8-5.4-4.9l-11.9,11.9c1.1,1,2.3,2,3.6,2.9
		c4.3,2.6,10.1,4.5,17.3,5.4c6.7,0.9,14.9,1.4,24.5,1.4c10-0.1,18.5-0.6,25.4-1.6c7.3-1.1,13.1-2.9,17.5-5.7
		c4.4-2.7,7.5-6.5,9.4-11.5c1.9-4.9,2.8-11.2,2.8-18.9c0-0.1,0-0.3,0-0.4L857.1,238.2z"/>
</g>
</svg>
