<?xml version="1.0" encoding="utf-8"?>
<!-- Generator: Adobe Illustrator 23.0.1, SVG Export Plug-In . SVG Version: 6.00 Build 0)  -->
<svg version="1.1" id="Layer_1" xmlns="http://www.w3.org/2000/svg" xmlns:xlink="http://www.w3.org/1999/xlink" x="0px" y="0px"
	 viewBox="0 0 512 512" style="enable-background:new 0 0 512 512;" xml:space="preserve">
<style type="text/css">
	.st0{fill:#1D69E6;}
</style>
<g>
	<path class="st0" d="M506.7,223.8c3.2-1.7,5.3-5.1,5.3-8.8v-70c0-3.6-2.1-7.1-5.3-8.8l-84.9-46.1c-1.5-0.8-3.2-1.3-4.9-1.3
		c-3.6,0-7,2-8.7,5.1c-1.3,2.3-1.6,5-0.9,7.6c0.7,2.6,2.4,4.7,4.7,6l4.2,2.3c0,0-48.9,26.3-49,26.4c-3.2,1.7-5.3,5.2-5.3,8.8v61.1
		l-39,4.6L266,180V156l59.7-32.2c3.2-1.7,5.3-5.1,5.3-8.8V62.1l11.3,6.3c1.5,0.8,3.2,1.3,4.9,1.3c3.6,0,7-2,8.7-5.1
		c1.3-2.3,1.6-5,0.9-7.6c-0.7-2.6-2.4-4.7-4.7-6L260.7,1.2c-3-1.6-6.5-1.6-9.5,0l-91.3,49.7c-4.8,2.7-6.5,8.8-3.8,13.6
		c1.8,3.2,5.1,5.1,8.7,5.1c1.7,0,3.4-0.4,4.9-1.3l11.3-6.3V115c0,3.7,2,7.1,5.3,8.8L246,156V180l-57,30.7l-39-4.6V145
		c0-3.6-2.1-7.1-5.3-8.8l-49-26.4l4.2-2.3c2.3-1.3,4-3.4,4.7-6c0.7-2.6,0.4-5.3-0.9-7.6c-1.8-3.2-5.1-5.1-8.7-5.1
		c-1.7,0-3.4,0.4-4.9,1.3c0,0-84.9,46.1-84.9,46.1C2.2,137.9,0,141.4,0,145v70c0,3.7,2,7.1,5.3,8.8L65,256v7.1
		c0,0-59.7,32.1-59.7,32.2C2.1,296.9,0,300.4,0,304v70c0,3.7,2,7.1,5.3,8.8l82.9,43.9c1.4,0.7,2.9,1.1,4.5,1.1
		c3.8,0,7.2-2.1,8.9-5.5c1.2-2.4,1.4-5.1,0.5-7.6c-0.8-2.5-2.6-4.6-5-5.8l-0.4-0.2l48-25.9c3.2-1.7,5.3-5.1,5.3-8.8v-62.2l39.7-10.1
		L246,332V356c0,0-59.7,32.1-59.7,32.2c-3.2,1.7-5.3,5.2-5.3,8.8v53.8l-12.4-6.2c-1.4-0.7-2.9-1.1-4.5-1.1c-3.8,0-7.3,2.1-9,5.5
		c-1.2,2.4-1.4,5.1-0.5,7.6c0.8,2.5,2.6,4.6,5,5.8c0,0,91.6,48.3,91.6,48.3c1.4,0.8,3.1,1.2,4.7,1.2c1.6,0,3.3-0.4,4.7-1.2
		l91.6-48.3c2.4-1.2,4.2-3.3,5-5.8c0.8-2.5,0.6-5.3-0.5-7.6c-1.7-3.4-5.1-5.5-9-5.5c-1.6,0-3.1,0.4-4.5,1.1l-12.4,6.2V397
		c0-3.6-2.1-7.1-5.3-8.8L266,356V332l56.3-30.3l39.7,10.1V374c0,3.7,2,7.1,5.3,8.8l48,25.9l-0.4,0.2c-4.9,2.5-6.9,8.5-4.5,13.4
		c1.7,3.4,5.1,5.5,9,5.5c1.5,0,3.1-0.4,4.5-1.1l82.9-43.9c3.2-1.7,5.3-5.1,5.3-8.8c0,0,0-70,0-70c0-3.6-2.1-7.1-5.3-8.8L447,263V256
		L506.7,223.8z M370.7,293.3L331,283.2v-53.3l39-4.6l57,30.7v7.1L370.7,293.3z M427,186v47.3L382,209v-47.3L427,186z M447,233.3V186
		l45-24.2V209L447,233.3z M437,121.4l43.9,23.6L437,168.6L393.1,145L437,121.4z M266,133.3V86l45-24.2V109L266,133.3z M256,21.4
		L299.9,45L256,68.6L212.1,45L256,21.4z M201,61.7L246,86v47.3L201,109V61.7z M256,197.4l43.9,23.6L256,244.6L212.1,221L256,197.4z
		 M141.3,293.3L85,263V256l57-30.7l39,4.6v53.3L141.3,293.3z M130,161.7V209l-45,24.2V186L130,161.7z M75,121.4l43.9,23.6L75,168.6
		L31.1,145L75,121.4z M20,161.7L65,186v47.3L20,209V161.7z M75,280.4l43.9,23.6L75,327.6L31.1,304L75,280.4z M20,320.7L65,345v47.3
		L20,368V320.7z M85,392.3V345l45-24.2V368L85,392.3z M201,237.7l45,24.2v47.3L201,285V237.7z M246,438v47.3L201,461v-47.3L246,438z
		 M266,485.3V438l45-24.2V461L266,485.3z M256,420.6L212.1,397l43.9-23.6l43.9,23.6L256,420.6z M266,309.3V262l45-24.2V285
		L266,309.3z M382,320.7l45,24.2v47.3L382,368V320.7z M447,392.3V345l45-24.2V368L447,392.3z M437,327.6L393.1,304l43.9-23.6
		l43.9,23.6L437,327.6z"/>
	<path class="st0" d="M377.2,87.9c1.5,0.8,3.2,1.3,4.9,1.3c3.6,0,7-2,8.7-5.1c1.3-2.3,1.6-5,0.9-7.6c-0.7-2.6-2.4-4.7-4.7-6
		c-1.5-0.8-3.2-1.3-4.9-1.3c-3.6,0-7,2-8.7,5.1c-1.3,2.3-1.6,5-0.9,7.6C373.2,84.5,374.9,86.6,377.2,87.9z"/>
	<path class="st0" d="M383.6,425.7c-1.6,0-3.1,0.4-4.5,1.1c-4.9,2.5-6.9,8.5-4.5,13.4c1.7,3.4,5.1,5.5,9,5.5c1.6,0,3.1-0.4,4.5-1.1
		c2.4-1.2,4.2-3.3,5-5.8c0.8-2.5,0.6-5.3-0.5-7.6C390.9,427.8,387.4,425.7,383.6,425.7z"/>
	<path class="st0" d="M129.9,89.2c1.7,0,3.4-0.4,4.9-1.3c2.3-1.3,4-3.4,4.7-6c0.7-2.6,0.4-5.3-0.9-7.6c-1.8-3.2-5.1-5.1-8.7-5.1
		c-1.7,0-3.4,0.4-4.9,1.3c-2.3,1.3-4,3.4-4.7,6c-0.7,2.6-0.4,5.3,0.9,7.6C123,87.3,126.3,89.2,129.9,89.2z"/>
	<path class="st0" d="M132.9,426.8c-1.4-0.7-2.9-1.1-4.5-1.1c-3.8,0-7.3,2.1-8.9,5.5c-1.2,2.4-1.4,5.1-0.6,7.6
		c0.8,2.5,2.6,4.6,5,5.8c1.4,0.7,2.9,1.1,4.5,1.1c3.8,0,7.3-2.1,8.9-5.5C139.8,435.2,137.8,429.2,132.9,426.8z"/>
</g>
</svg>
