<?xml version="1.0" encoding="utf-8"?>
<!-- Generator: Adobe Illustrator 23.0.1, SVG Export Plug-In . SVG Version: 6.00 Build 0)  -->
<svg version="1.1" id="Layer_1" xmlns="http://www.w3.org/2000/svg" xmlns:xlink="http://www.w3.org/1999/xlink" x="0px" y="0px"
	 viewBox="0 0 133.7 129.6" style="enable-background:new 0 0 133.7 129.6;" xml:space="preserve">
<style type="text/css">
	.st0{fill:url(#SVGID_1_);}
	.st1{fill-rule:evenodd;clip-rule:evenodd;fill:#4773D1;}
	.st2{fill-rule:evenodd;clip-rule:evenodd;fill:url(#SVGID_2_);}
	.st3{opacity:0.5;fill-rule:evenodd;clip-rule:evenodd;fill:url(#SVGID_3_);}
	.st4{opacity:0.2;fill:url(#SVGID_4_);}
	.st5{fill-rule:evenodd;clip-rule:evenodd;fill:url(#SVGID_5_);}
	.st6{opacity:0.2;fill:url(#SVGID_6_);}
	.st7{fill:#FFFFFF;}
</style>
<g>
	<linearGradient id="SVGID_1_" gradientUnits="userSpaceOnUse" x1="66.8738" y1="101.837" x2="66.8738" y2="14.2403">
		<stop  offset="0" style="stop-color:#6B97F6"/>
		<stop  offset="3.839372e-02" style="stop-color:#8EB1F8"/>
		<stop  offset="8.810882e-02" style="stop-color:#B3CDFB"/>
		<stop  offset="0.1377" style="stop-color:#D1E3FD"/>
		<stop  offset="0.1864" style="stop-color:#E6F2FE"/>
		<stop  offset="0.2339" style="stop-color:#F3FCFF"/>
		<stop  offset="0.2788" style="stop-color:#F7FFFF"/>
		<stop  offset="0.472" style="stop-color:#C8E7FF"/>
		<stop  offset="0.5818" style="stop-color:#ACD8FF"/>
		<stop  offset="0.6092" style="stop-color:#BDE0FF"/>
		<stop  offset="0.6656" style="stop-color:#DAEDFF"/>
		<stop  offset="0.7217" style="stop-color:#EEF7FF"/>
		<stop  offset="0.777" style="stop-color:#FBFDFF"/>
		<stop  offset="0.8303" style="stop-color:#FFFFFF"/>
		<stop  offset="0.868" style="stop-color:#EDF5FF"/>
		<stop  offset="0.9429" style="stop-color:#BFDAFF"/>
		<stop  offset="1" style="stop-color:#98C4FF"/>
	</linearGradient>
	<path class="st0" d="M128.9,76.2c0,34.2-124,34.2-124,0c0-34.2,27.8-61.9,62-61.9C101.1,14.2,128.9,42,128.9,76.2z"/>
	<g>
		<g>
			<g>
				<g>
					<g>
						<g>
							<path class="st1" d="M116.2,65.7c0,27.4-22.2,49.6-49.6,49.6C39.2,115.3,17,93.1,17,65.7c0-27.4,22.2-49.6,49.6-49.6
								C94,16.1,116.2,38.3,116.2,65.7z"/>
							
								<radialGradient id="SVGID_2_" cx="64.347" cy="12.4832" r="98.0876" gradientTransform="matrix(1 0 0 0.9994 0 -6.052233e-02)" gradientUnits="userSpaceOnUse">
								<stop  offset="0" style="stop-color:#6EA7FD"/>
								<stop  offset="0.4303" style="stop-color:#4279D1"/>
								<stop  offset="0.5782" style="stop-color:#386CC6"/>
								<stop  offset="0.8483" style="stop-color:#1C4BA7"/>
								<stop  offset="1" style="stop-color:#0A3694"/>
							</radialGradient>
							<path class="st2" d="M113.4,65.7c0,25.8-20.9,46.7-46.8,46.7c-25.8,0-46.7-20.9-46.7-46.7C19.9,39.9,40.8,19,66.6,19
								C92.4,19,113.4,39.9,113.4,65.7z"/>
							
								<radialGradient id="SVGID_3_" cx="66.7291" cy="54.4937" r="65.8603" gradientTransform="matrix(1 0 0 0.9994 0 -6.052233e-02)" gradientUnits="userSpaceOnUse">
								<stop  offset="0" style="stop-color:#FFFFFF"/>
								<stop  offset="0.2219" style="stop-color:#EDF5FF"/>
								<stop  offset="0.6637" style="stop-color:#BFDAFF"/>
								<stop  offset="1" style="stop-color:#98C4FF"/>
							</radialGradient>
							<path class="st3" d="M66.6,114.4c19.8,0,36.8-11.8,44.5-28.8C105,66.9,87.4,53.4,66.6,53.4c-20.8,0-38.4,13.6-44.5,32.3
								C29.8,102.6,46.8,114.4,66.6,114.4z"/>
							<linearGradient id="SVGID_4_" gradientUnits="userSpaceOnUse" x1="74.1854" y1="80.0952" x2="37.6781" y2="29.8343">
								<stop  offset="0" style="stop-color:#0A3694"/>
								<stop  offset="0.1016" style="stop-color:#0F3A96"/>
								<stop  offset="0.2284" style="stop-color:#1F479D"/>
								<stop  offset="0.3687" style="stop-color:#385CA8"/>
								<stop  offset="0.5187" style="stop-color:#5C79B8"/>
								<stop  offset="0.6764" style="stop-color:#899FCC"/>
								<stop  offset="0.8383" style="stop-color:#C0CCE4"/>
								<stop  offset="1" style="stop-color:#FFFFFF"/>
							</linearGradient>
							<path class="st4" d="M108.9,52.4C90.2,41.9,71.7,36.6,53.6,36.6c-9.8,0-18.6,1.5-26.3,3.9c-4.7,7.3-7.4,15.9-7.4,25.2
								c0,12.3,4.8,23.5,12.5,31.9c19.6-15,46.7-32,74.8-38.1C107.8,57.1,108.4,54.7,108.9,52.4z"/>
							<linearGradient id="SVGID_5_" gradientUnits="userSpaceOnUse" x1="17.877" y1="65.7086" x2="115.3667" y2="65.7086">
								<stop  offset="0" style="stop-color:#6B97F6"/>
								<stop  offset="3.839372e-02" style="stop-color:#8EB1F8"/>
								<stop  offset="8.810882e-02" style="stop-color:#B3CDFB"/>
								<stop  offset="0.1377" style="stop-color:#D1E3FD"/>
								<stop  offset="0.1864" style="stop-color:#E6F2FE"/>
								<stop  offset="0.2339" style="stop-color:#F3FCFF"/>
								<stop  offset="0.2788" style="stop-color:#F7FFFF"/>
								<stop  offset="0.472" style="stop-color:#C8E7FF"/>
								<stop  offset="0.5818" style="stop-color:#ACD8FF"/>
								<stop  offset="0.6092" style="stop-color:#BDE0FF"/>
								<stop  offset="0.6656" style="stop-color:#DAEDFF"/>
								<stop  offset="0.7217" style="stop-color:#EEF7FF"/>
								<stop  offset="0.777" style="stop-color:#FBFDFF"/>
								<stop  offset="0.8303" style="stop-color:#FFFFFF"/>
								<stop  offset="0.868" style="stop-color:#EDF5FF"/>
								<stop  offset="0.9429" style="stop-color:#BFDAFF"/>
								<stop  offset="1" style="stop-color:#98C4FF"/>
							</linearGradient>
							<path class="st5" d="M66.6,17c-26.9,0-48.7,21.8-48.7,48.7c0,26.9,21.8,48.7,48.7,48.7c27,0,48.7-21.8,48.7-48.7
								C115.4,38.8,93.6,17,66.6,17z M66.6,112.4c-25.8,0-46.7-20.9-46.7-46.7C19.9,39.9,40.8,19,66.6,19
								c25.8,0,46.8,20.9,46.8,46.7C113.4,91.5,92.4,112.4,66.6,112.4z"/>
						</g>
						
							<linearGradient id="SVGID_6_" gradientUnits="userSpaceOnUse" x1="-162.6957" y1="-226.2654" x2="-144.9539" y2="-192.5561" gradientTransform="matrix(5.270000e-02 0.9986 0.9986 -5.270000e-02 286.0743 177.208)">
							<stop  offset="0" style="stop-color:#0A3694"/>
							<stop  offset="0.2464" style="stop-color:#0C3895"/>
							<stop  offset="0.385" style="stop-color:#153F99"/>
							<stop  offset="0.4969" style="stop-color:#224A9F"/>
							<stop  offset="0.5946" style="stop-color:#365AA7"/>
							<stop  offset="0.683" style="stop-color:#506FB2"/>
							<stop  offset="0.7647" style="stop-color:#6F89C0"/>
							<stop  offset="0.8413" style="stop-color:#95A8D1"/>
							<stop  offset="0.9138" style="stop-color:#C0CBE3"/>
							<stop  offset="0.9806" style="stop-color:#F0F2F8"/>
							<stop  offset="1" style="stop-color:#FFFFFF"/>
						</linearGradient>
						<path class="st6" d="M66.4,44.5c11-0.6,19.6-6.1,19.3-12.4c-0.3-6.3-9.5-10.9-20.6-10.3c-11,0.6-19.6,6.1-19.3,12.4
							C46.2,40.5,55.4,45.1,66.4,44.5z"/>
					</g>
				</g>
				<path class="st7" d="M58.5,46.5c-2-1.4-3.6-0.5-3.6,1.9v33.6c0,2.5,1.6,3.3,3.6,1.9l26-16.7c1.9-1.4,1.9-3.7-0.1-5.1L58.5,46.5z
					"/>
			</g>
		</g>
	</g>
</g>
</svg>
