<?xml version="1.0" encoding="utf-8"?>
<!-- Generator: Adobe Illustrator 23.0.1, SVG Export Plug-In . SVG Version: 6.00 Build 0)  -->
<svg version="1.1" id="Layer_1" xmlns="http://www.w3.org/2000/svg" xmlns:xlink="http://www.w3.org/1999/xlink" x="0px" y="0px"
	 viewBox="0 0 512 512" style="enable-background:new 0 0 512 512;" xml:space="preserve">
<style type="text/css">
	.st0{fill:#4169E2;
	}
</style>
<title>Portfolio</title>
<path class="st0" d="M67.2,457h377.7c23.2,0,42.2-18.5,42.2-41.7v-258c-0.1-23.3-18.9-42.2-42.2-42.3H351V96.7
	c0-23.2-19.1-41.7-42.3-41.7H203.3C180.1,55,161,73.5,161,96.7V115H67.2c-23.3,0.2-42.1,19-42.2,42.3v258C25,438.5,44,457,67.2,457z
	 M444.8,441H67.2c-14.3,0.2-26-11.3-26.2-25.5v-0.1v-80.5c7.4,5.9,16.7,9.1,26.2,9.1H198v25.1c0,4.4,4,7.9,8.4,7.9h99.2
	c4.4,0,8.4-3.5,8.4-7.9V344h130.8c9.5,0,18.7-3.2,26.2-9.1v80.5c-0.1,14.3-11.8,25.8-26.1,25.7C444.9,441,444.9,441,444.8,441z
	 M214,361v-43h84v43H214z M177,96.7c0-14.4,11.9-25.7,26.3-25.7h105.5c14.4,0,26.3,11.3,26.3,25.7V115H177V96.7z M41,157.3
	c0.1-14.5,11.7-26.2,26.2-26.3h377.7c14.5,0.1,26.1,11.9,26.2,26.3v144.6c-0.1,14.4-11.8,26-26.2,26.1H314v-17.8
	c-0.2-4.5-3.9-8.1-8.4-8.2h-99.2c-4.5,0.1-8.2,3.7-8.4,8.2V328H67.2c-14.4,0-26.1-11.7-26.2-26.1L41,157.3L41,157.3z"/>
<path class="st0" d="M227,250h-3.3c-4.4,0-8,3.6-8,8s3.6,8,8,8h6.3v8c0,4.4,3.6,8,8,8s8-3.6,8-8v-8h4v8c0,4.4,3.6,8,8,8s8-3.6,8-8
	v-8l0,0c16.6,0.1,30.1-13.2,30.3-29.8c0.1-8.5-3.5-16.7-9.8-22.5c12.4-11.4,13.1-30.6,1.8-43c-5.7-6.2-13.8-9.8-22.2-9.8l0,0v-7
	c0-4.4-3.6-8-8-8s-8,3.6-8,8v7h-4v-7c0-4.4-3.6-8-8-8s-8,3.6-8,8v7h-6.3c-4.4,0-8,3.6-8,8s3.6,8,8,8h3.3L227,250L227,250z
	 M280.3,236c0,7.8-6.4,14-14.1,14c-0.1,0-0.1,0-0.2,0h-23v-28h23c7.8-0.1,14.2,6.1,14.3,13.8C280.3,235.9,280.3,235.9,280.3,236z
	 M253.8,177H266c8,0,14.5,6.5,14.5,14.5S274,206,266,206h-23v-29H253.8z"/>
</svg>
