<?xml version="1.0" encoding="utf-8"?>
<!-- Generator: Adobe Illustrator 23.0.1, SVG Export Plug-In . SVG Version: 6.00 Build 0)  -->
<svg version="1.1" id="Layer_1" xmlns="http://www.w3.org/2000/svg" xmlns:xlink="http://www.w3.org/1999/xlink" x="0px" y="0px"
	 viewBox="0 0 512 512" style="enable-background:new 0 0 512 512;" xml:space="preserve">
<style type="text/css">
	.st0{fill:#1D69E6;}
</style>
<g>
	<path class="st0" d="M247,232c-5.5,0-10,4.5-10,10c0,5.5,4.5,10,10,10s10-4.5,10-10C257,236.5,252.5,232,247,232z"/>
	<path class="st0" d="M194.1,511.6c4.2,1.3,8.7-0.3,11.2-3.9L297.6,372H455c4.2,0,8-2.7,9.4-6.6s0.2-8.4-3.1-11.1l-258-211.1
		c-3-2.4-7.1-3-10.6-1.3c-3.5,1.7-5.7,5.2-5.7,9V502C187,506.4,189.9,510.3,194.1,511.6z M207,172l220,180H292.4
		c-3.3,0-6.4,1.6-8.3,4.4L207,469.6L207,172L207,172z"/>
	<path class="st0" d="M350.7,328.3c3.5-4.3,2.9-10.6-1.4-14.1l-65.7-53.8c-4.3-3.5-10.6-2.9-14.1,1.4c-3.5,4.3-2.9,10.6,1.4,14.1
		l65.7,53.8C340.9,333.2,347.2,332.6,350.7,328.3z"/>
	<path class="st0" d="M57,160h60c5.5,0,10-4.5,10-10s-4.5-10-10-10H57c-5.5,0-10,4.5-10,10S51.5,160,57,160z"/>
	<path class="st0" d="M277,160h60c5.5,0,10-4.5,10-10s-4.5-10-10-10h-60c-5.5,0-10,4.5-10,10S271.5,160,277,160z"/>
	<path class="st0" d="M187,10v60c0,5.5,4.5,10,10,10c5.5,0,10-4.5,10-10V10c0-5.5-4.5-10-10-10C191.5,0,187,4.5,187,10z"/>
	<path class="st0" d="M105.1,256.1l42.4-42.4c3.9-3.9,3.9-10.2,0-14.1c-3.9-3.9-10.2-3.9-14.1,0l-42.4,42.4
		c-3.9,3.9-3.9,10.2,0,14.1C94.9,260,101.2,260,105.1,256.1z"/>
	<path class="st0" d="M303.1,43.9c-3.9-3.9-10.2-3.9-14.1,0l-42.4,42.4c-3.9,3.9-3.9,10.2,0,14.1c3.9,3.9,10.2,3.9,14.1,0l42.4-42.4
		C307,54.2,307,47.8,303.1,43.9z"/>
	<path class="st0" d="M147.5,86.4l-42.4-42.4c-3.9-3.9-10.2-3.9-14.1,0c-3.9,3.9-3.9,10.2,0,14.1l42.4,42.4c3.9,3.9,10.2,3.9,14.1,0
		C151.4,96.6,151.4,90.3,147.5,86.4z"/>
</g>
</svg>
