<?xml version="1.0" encoding="utf-8"?>
<!-- Generator: Adobe Illustrator 23.0.1, SVG Export Plug-In . SVG Version: 6.00 Build 0)  -->
<svg version="1.1" id="Layer_1" xmlns="http://www.w3.org/2000/svg" xmlns:xlink="http://www.w3.org/1999/xlink" x="0px" y="0px"
	 viewBox="0 0 512 512" style="enable-background:new 0 0 512 512;" xml:space="preserve">
<style type="text/css">
	.st0{fill:#1D69E6;}
</style>
<g>
	<g>
		<g>
			<path class="st0" d="M344.6,91.9c-27.1-27.1-63-42-101.3-42c-38.3,0-74.3,14.9-101.3,42c-55.9,55.9-55.9,146.9,0,202.8
				c27.1,27.1,63.1,42,101.3,42c38.3,0,74.3-14.9,101.3-42C400.5,238.8,400.5,147.8,344.6,91.9z M332.4,282.5
				c-23.8,23.8-55.4,36.9-89.1,36.9c-33.6,0-65.3-13.1-89.1-36.9c-49.1-49.2-49.1-129.2,0-178.4c23.8-23.8,55.4-36.9,89.1-36.9
				s65.3,13.1,89.1,36.9C381.5,153.3,381.5,233.3,332.4,282.5z"/>
		</g>
	</g>
</g>
<g>
	<g>
		<g>
			<path class="st0" d="M317.8,118.8c-19.9-19.9-46.4-30.9-74.5-30.9c-28.1,0-54.6,11-74.5,30.9c-3.4,3.4-3.4,8.9,0,12.2
				c3.4,3.4,8.9,3.4,12.2,0c16.6-16.6,38.7-25.8,62.3-25.8c23.5,0,45.6,9.2,62.3,25.8c1.7,1.7,3.9,2.5,6.1,2.5
				c2.2,0,4.4-0.8,6.1-2.5C321.2,127.6,321.2,122.1,317.8,118.8z"/>
		</g>
	</g>
</g>
<g>
	<g>
		<g>
			<path class="st0" d="M190.2,435.2H8.7c-4.8,0-8.7,3.9-8.7,8.7v50.9c0,4.8,3.9,8.7,8.7,8.7h37.6c4.8,0,8.7-3.9,8.7-8.7
				s-3.9-8.7-8.7-8.7H17.3v-33.6h164.2v33.6h-79.2c-4.8,0-8.7,3.9-8.7,8.7s3.9,8.7,8.7,8.7h87.9c4.8,0,8.7-3.9,8.7-8.7v-50.9
				C198.9,439.1,195,435.2,190.2,435.2z"/>
		</g>
	</g>
</g>
<g>
	<g>
		<g>
			<path class="st0" d="M509.5,402.2l-74-74c-3.4-3.4-8.9-3.4-12.2,0l-4.2,4.2l-26.7-26.7c43.5-58.3,49.5-138.1,13-202.7
				c-2.4-4.2-7.6-5.6-11.8-3.3c-4.2,2.4-5.6,7.6-3.3,11.8c34.7,61.4,27,138-17.8,191.4c-0.1,0.2-0.3,0.4-0.4,0.5
				c-0.6,0.7-1.2,1.4-1.8,2c-0.3,0.3-0.5,0.6-0.8,0.9c-0.5,0.6-1.1,1.2-1.6,1.8c-0.4,0.4-0.7,0.8-1.1,1.2c-0.5,0.5-1,1.1-1.5,1.6
				c-0.4,0.4-0.8,0.8-1.2,1.2c-0.5,0.5-0.9,1-1.4,1.5c-2.1,2-4.1,4-6.3,6c-0.1,0.1-0.2,0.2-0.3,0.3c-32,28.7-72.4,43.1-112.8,43.1
				c-43.2,0-86.5-16.4-119.4-49.3c-31.9-31.9-49.5-74.2-49.5-119.3c0-45,17.6-87.4,49.5-119.3c65.8-65.8,173-65.8,238.8,0
				c3.4,3.4,8.9,3.4,12.2,0c3.4-3.4,3.4-8.9,0-12.2c-72.6-72.5-190.7-72.5-263.3,0C76.3,98.1,57,144.8,56.9,194.4
				c0,23.7,4.4,46.6,12.8,68H8.7c-4.8,0-8.7,3.9-8.7,8.7V322c0,4.8,3.9,8.7,8.7,8.7h107.8c6.6,6.2,13.6,11.8,20.9,16.8H8.7
				c-4.8,0-8.7,3.9-8.7,8.7v50.9c0,4.8,3.9,8.7,8.7,8.7h310.7c4.8,0,8.7-3.9,8.7-8.7V360c9.2-4.7,18.2-10.3,26.6-16.6l26.7,26.7
				l-4.2,4.2c-1.6,1.6-2.5,3.8-2.5,6.1c0,2.3,0.9,4.5,2.5,6.1l74,74c1.6,1.6,3.8,2.5,6.1,2.5s4.5-0.9,6.1-2.5l46.1-46.1
				C512.8,411,512.8,405.6,509.5,402.2z M17.3,313.4v-33.6h60.3c6.2,11.9,13.6,23.2,22.4,33.6H17.3z M310.7,398.4H17.3v-33.6H164
				c1.1,0,2.2-0.2,3.1-0.6c24.1,10.7,50,16.1,76,16.1c23,0,45.9-4.2,67.6-12.6L310.7,398.4L310.7,398.4z M368.1,332.3
				c0.9-0.8,1.7-1.6,2.6-2.4c0.2-0.2,0.4-0.4,0.6-0.6c1.1-1.1,2.3-2.2,3.4-3.3c0.4-0.4,0.9-0.9,1.3-1.3c0.5-0.5,1.1-1.1,1.6-1.6
				c0.5-0.5,1-1.1,1.6-1.7c0.4-0.5,0.9-0.9,1.3-1.4c0.2-0.3,0.5-0.5,0.7-0.8l25.5,25.5l-13.1,13.1L368.1,332.3z M457.3,442.1
				l-61.8-61.8l4.2-4.2c0,0,0,0,0,0l25.4-25.4c0,0,0,0,0,0l4.2-4.2l61.8,61.8L457.3,442.1z"/>
		</g>
	</g>
</g>
</svg>
