<?xml version="1.0" encoding="utf-8"?>
<!-- Generator: Adobe Illustrator 23.0.1, SVG Export Plug-In . SVG Version: 6.00 Build 0)  -->
<svg version="1.1" id="Capa_1" xmlns="http://www.w3.org/2000/svg" xmlns:xlink="http://www.w3.org/1999/xlink" x="0px" y="0px"
	 viewBox="0 0 30.1 30.1" style="enable-background:new 0 0 30.1 30.1;" xml:space="preserve">
<style type="text/css">
	.st0{fill:#1B60D4;}
	.st1{fill-rule:evenodd;clip-rule:evenodd;fill:#FFFFFF;}
</style>
<g>
	<g>
		<circle class="st0" cx="15" cy="15" r="15"/>
	</g>
	<path class="st1" d="M14.9,19.3h0.9c0,0,0.3,0,0.4-0.2c0.1-0.1,0.1-0.4,0.1-0.4s0-1.2,0.5-1.4c0.5-0.2,1.3,1.2,2,1.7
		c0.6,0.4,1,0.3,1,0.3l2,0c0,0,1-0.1,0.5-0.9c0-0.1-0.3-0.6-1.5-1.7c-1.3-1.2-1.1-1,0.4-3c0.9-1.2,1.3-2,1.2-2.3
		c-0.1-0.3-0.8-0.2-0.8-0.2l-2.3,0c0,0-0.2,0-0.3,0.1C19,11.3,19,11.5,19,11.5s-0.4,0.9-0.8,1.8c-1,1.7-1.4,1.8-1.6,1.7
		c-0.4-0.2-0.3-1-0.3-1.5c0-1.6,0.3-2.3-0.5-2.5c-0.2-0.1-0.4-0.1-1-0.1c-0.8,0-1.5,0-1.9,0.2c-0.3,0.1-0.5,0.4-0.3,0.4
		c0.1,0,0.5,0.1,0.7,0.3c0.2,0.3,0.2,1,0.2,1s0.1,1.9-0.3,2.2c-0.3,0.2-0.7-0.2-1.6-1.7c-0.5-0.8-0.8-1.7-0.8-1.7s-0.1-0.2-0.2-0.3
		c-0.1-0.1-0.3-0.1-0.3-0.1l-2.1,0c0,0-0.3,0-0.4,0.1c-0.1,0.1,0,0.4,0,0.4s1.7,3.9,3.6,5.9C12.9,19.4,14.9,19.3,14.9,19.3
		L14.9,19.3z M14.9,19.3"/>
</g>
</svg>
